<svg id="Layer_1" data-name="Layer 1" xmlns="http://www.w3.org/2000/svg" xmlns:xlink="http://www.w3.org/1999/xlink" viewBox="0 0 355.05 198.96"><defs><style>.cls-1{fill:url(#linear-gradient);}.cls-2{fill:url(#linear-gradient-2);}.cls-3{fill:none;}.cls-4{fill:url(#linear-gradient-3);}</style><linearGradient id="linear-gradient" x1="155.78" y1="218.04" x2="328.26" y2="289.77" gradientUnits="userSpaceOnUse"><stop offset="0" stop-color="#180e7a"/><stop offset="0.11" stop-color="#3e007f"/><stop offset="0.23" stop-color="#960d42"/><stop offset="0.36" stop-color="#c70c22"/><stop offset="0.46" stop-color="#ed1c0a"/><stop offset="0.7" stop-color="#f75a04"/><stop offset="1" stop-color="#f5c823"/></linearGradient><linearGradient id="linear-gradient-2" x1="167.4" y1="190.11" x2="339.88" y2="261.84" gradientUnits="userSpaceOnUse"><stop offset="0" stop-color="#3e007f"/><stop offset="0.12" stop-color="#3e007f"/><stop offset="0.23" stop-color="#960d42"/><stop offset="0.36" stop-color="#c70c22"/><stop offset="0.46" stop-color="#ed1c0a"/><stop offset="0.7" stop-color="#f75a04"/><stop offset="1" stop-color="#f5c823"/></linearGradient><linearGradient id="linear-gradient-3" x1="345.42" y1="236.06" x2="386.27" y2="236.06" gradientUnits="userSpaceOnUse"><stop offset="0" stop-color="#f5c823"/><stop offset="0.3" stop-color="#f75a04"/><stop offset="0.54" stop-color="#ed1c0a"/><stop offset="0.64" stop-color="#c70c22"/><stop offset="0.77" stop-color="#960d42"/><stop offset="0.97" stop-color="#3e007f"/></linearGradient></defs><path d="M373.67,151.52H128.33a5.07,5.07,0,0,0-5.09,5V317.15a5.07,5.07,0,0,0,5.09,5.05H220v18.18H202.64a5.05,5.05,0,1,0,0,10.1h96.72a5.05,5.05,0,1,0,0-10.1H282.05V322.2h91.62a5.07,5.07,0,0,0,5.09-5.05V156.57A5.07,5.07,0,0,0,373.67,151.52ZM271.87,340.38H230.13V322.2h41.74Zm96.71-28.28H133.42V161.62H368.58Z" transform="translate(-123.24 -151.52)"/><path class="cls-1" d="M243.1,220.71A36.67,36.67,0,0,0,235,208a35.75,35.75,0,0,0-12.49-8.17A43.48,43.48,0,0,0,206.42,197h-30v65.33c3.79-4.1,7.54-8.22,10.92-12.66V205.76h19.09a31.14,31.14,0,0,1,11.71,2.12,24.52,24.52,0,0,1,9,6.16,27.91,27.91,0,0,1,5.71,9.86,44.24,44.24,0,0,1,0,26.43,27.6,27.6,0,0,1-5.71,9.83,24.57,24.57,0,0,1-9,6.13,31,31,0,0,1-11.71,2.13h-10.8c-2.67,2.95-5.41,5.85-8.08,8.79h18.88a43.48,43.48,0,0,0,16.13-2.88A35.84,35.84,0,0,0,235,266.18a36.36,36.36,0,0,0,8.06-12.66,48.48,48.48,0,0,0,0-32.81Z" transform="translate(-123.24 -151.52)"/><path class="cls-2" d="M327.44,220.71A36.67,36.67,0,0,0,319.38,208a35.93,35.93,0,0,0-12.49-8.17A43.52,43.52,0,0,0,290.76,197H273.67q3.18,4.44,6.48,8.8h10.61a31.13,31.13,0,0,1,11.7,2.12,24.43,24.43,0,0,1,9,6.16,27.93,27.93,0,0,1,5.72,9.86,44.45,44.45,0,0,1,0,26.43,27.62,27.62,0,0,1-5.72,9.83,24.48,24.48,0,0,1-9,6.13,30.93,30.93,0,0,1-11.7,2.13h-19.1V225.24c-3.76-4.67-7.38-9.47-10.92-14.33v66.3h30a43.52,43.52,0,0,0,16.13-2.88,35.41,35.41,0,0,0,20.55-20.81,48.48,48.48,0,0,0,0-32.81Z" transform="translate(-123.24 -151.52)"/><path class="cls-3" d="M389.71,229.67c-1.58,1-2.88,1.84-3.79,2.48h0l1.39,4.85c.79.23,1.85.51,3.11.76a33.8,33.8,0,0,0,12,.22c16.8-2.79,42-11,60.65-19.86-20.42,0-45.52,2.44-61.84,6.48A44,44,0,0,0,389.71,229.67Z" transform="translate(-123.24 -151.52)"/><path class="cls-3" d="M379.39,231.69a9.08,9.08,0,0,0-2-2,6.72,6.72,0,0,0-6.38-.86c-1.95.62-3.64,1.29-5.21,1.95l-1.14.48c-1.15.49-2.31,1-3.43,1.39a20.43,20.43,0,0,1-6.92,1.42,54.22,54.22,0,0,0,15.14,9,8.66,8.66,0,0,0,8.83-1.54,15.79,15.79,0,0,0,3.05-3.17l-1.45-5.06Z" transform="translate(-123.24 -151.52)"/><path class="cls-3" d="M350.16,233.76h0Z" transform="translate(-123.24 -151.52)"/><path class="cls-4" d="M380.8,225.06a13.74,13.74,0,0,0-12.51-2c-2.18.69-4.05,1.44-5.69,2.12l-1.27.54c-1.12.47-2.09.89-3.07,1.24a13.35,13.35,0,0,1-7.4.87,5.65,5.65,0,0,0-4,.52,3.13,3.13,0,0,0-1.41,2.12,4.25,4.25,0,0,0,.23,2.13,9.82,9.82,0,0,0,1.82,2.87,27.33,27.33,0,0,0,2.7,2.68,61.56,61.56,0,0,0,17.51,10.45,14.91,14.91,0,0,0,14.94-2.24,21.3,21.3,0,0,0,3.6-3.62l-3.69-16.23A16.45,16.45,0,0,0,380.8,225.06Zm-30.64,8.7h0ZM379.59,232h0Z" transform="translate(-123.24 -151.52)"/><polygon points="256.35 80.46 256.35 80.46 256.36 80.47 256.35 80.46"/><path d="M382.58,226.55l3.69,16.23.18.05-3.72-16.38Z" transform="translate(-123.24 -151.52)"/><path d="M478.1,214.83a3.73,3.73,0,0,0-3.19-2.34c-22.26-1.42-55.58,1.22-76,6.27a49.09,49.09,0,0,0-13.07,5.71c-1.18.72-2.22,1.39-3.08,2l3.72,16.38a41.23,41.23,0,0,0,17.81,1.1c20.8-3.45,53.5-14.75,72.74-25.8A2.64,2.64,0,0,0,478.1,214.83Z" transform="translate(-123.24 -151.52)"/><polygon points="264.07 85.49 264.07 85.49 264.07 85.48 264.07 85.49"/></svg>