<svg id="Layer_1" data-name="Layer 1" xmlns="http://www.w3.org/2000/svg" viewBox="0 0 760 519"><defs><style>.cls-1{fill:#fff;}</style></defs><path class="cls-1" d="M1340,799H580V280h760ZM1067,653.32c-2.38-.71-4.24-1.4-6.16-1.83-8.58-1.92-17.11-4.21-25.78-5.48-7-1-14.3-.58-21.43-1.15a198.66,198.66,0,0,1-74.45-21.06c-30.12-15.2-53.21-38.21-74.11-64.22-42.37-52.72-87-103.57-133.21-152.93-15.57-16.63-32.09-32.39-48.51-48.19-5.8-5.57-6.4-5.07-12.4.29-17.84,15.93-30.73,35.38-40.16,57.19-10.47,24.22-18,49.25-15.48,76,.92,9.78,2.68,20.3,7.25,28.77a246.87,246.87,0,0,1,28.11,92.52c2.62,25.47,2.69,51.22,3.53,76.85.56,17.32.55,34.66.61,52,0,4.38,1.66,6.47,6.11,6.47,6.16,0,12.33.38,18.48.22,6.33-.17,8.78-3,8.72-9.42-.44-46-.76-92-1.5-138-.12-7.67,2.87-13.46,7.3-19,2.86-3.57,6.65-5.07,11.32-5.39,9.92-.68,18.15,3.65,26.26,8.26,15,8.53,26,21.53,35.65,35.23,14.85,21.07,28.4,43,42.4,64.71,7.95,12.31,15.32,25,26.41,35,17,15.17,35.64,26.25,59.5,25.27,5-.21,10,.28,15,.21,42.32-.59,84.65-1,127-2,31-.72,61.93-2.22,92.88-3.5,4.27-.18,8.67-2.13,12.74-1.51,14.91,2.25,29.58,1.14,44.22-1.68,4.84-.93,5.93-3.63,4.62-8.47-2.36-8.66-5-17.31-6.45-26.14-4.94-29.87,1.62-56,26.18-75.78,4.28-3.45,8.45-7,12.91-10.26,9.73-7,19.81-13.54,29.39-20.73,10.32-7.74,13.75-18.28,11.49-31-4.36-24.52-13.83-47.27-24-69.74-.89-2-4.2-3.56-6.6-3.93-3-.47-5-1.38-5.87-4.33-.57-1.91-1.37-3.76-1.89-5.69-5-18.57-4.23-37.39-1.29-56.06,3-19.25,7.46-38.27,10.6-57.5a227.53,227.53,0,0,0,3.37-34.7c.1-12.69-5.84-22.71-17.56-28.71-1.28-.66-3.11-1.56-3.38-2.66-1.29-5.32-5.52-5.77-9.67-6.25-12-1.41-21.17,4.31-28.39,12.84a195.2,195.2,0,0,0-17,24c-27.22,44.37-45.49,92.52-55.44,143.33-5.77,29.47-6.9,59.84-10.12,89.8q-1.56,14.54-3.09,29.06c-10.38-1.19-10.37-1.19-13.14,8.29C1077.05,619.15,1072.13,635.92,1067,653.32Z" transform="translate(-580 -280)"/><path d="M1067,653.32c5.09-17.4,10-34.17,14.91-51,2.77-9.48,2.76-9.48,13.14-8.29q1.54-14.52,3.09-29.06c3.22-30,4.35-60.33,10.12-89.8,10-50.81,28.22-99,55.44-143.33a195.2,195.2,0,0,1,17-24c7.22-8.53,16.4-14.25,28.39-12.84,4.15.48,8.38.93,9.67,6.25.27,1.1,2.1,2,3.38,2.66,11.72,6,17.66,16,17.56,28.71a227.53,227.53,0,0,1-3.37,34.7c-3.14,19.23-7.57,38.25-10.6,57.5-2.94,18.67-3.72,37.49,1.29,56.06.52,1.93,1.32,3.78,1.89,5.69.9,2.95,2.82,3.86,5.87,4.33,2.4.37,5.71,2,6.6,3.93,10.21,22.47,19.68,45.22,24,69.74,2.26,12.69-1.17,23.23-11.49,31-9.58,7.19-19.66,13.74-29.39,20.73-4.46,3.21-8.63,6.81-12.91,10.26-24.56,19.78-31.12,45.91-26.18,75.78,1.46,8.83,4.09,17.48,6.45,26.14,1.31,4.84.22,7.54-4.62,8.47-14.64,2.82-29.31,3.93-44.22,1.68-4.07-.62-8.47,1.33-12.74,1.51-30.95,1.28-61.91,2.78-92.88,3.5-42.32,1-84.65,1.37-127,2-5,.07-10-.42-15-.21-23.86,1-42.55-10.1-59.5-25.27-11.09-9.92-18.46-22.65-26.41-35-14-21.66-27.55-43.64-42.4-64.71-9.66-13.7-20.65-26.7-35.65-35.23-8.11-4.61-16.34-8.94-26.26-8.26-4.67.32-8.46,1.82-11.32,5.39-4.43,5.53-7.42,11.32-7.3,19,.74,46,1.06,92,1.5,138,.06,6.42-2.39,9.25-8.72,9.42-6.15.16-12.32-.22-18.48-.22-4.45,0-6.09-2.09-6.11-6.47-.06-17.33-.05-34.67-.61-52-.84-25.63-.91-51.38-3.53-76.85A246.87,246.87,0,0,0,622.6,520.7c-4.57-8.47-6.33-19-7.25-28.77-2.53-26.74,5-51.77,15.48-76,9.43-21.81,22.32-41.26,40.16-57.19,6-5.36,6.6-5.86,12.4-.29,16.42,15.8,32.94,31.56,48.51,48.19C778.15,456,822.74,506.86,865.11,559.58c20.9,26,44,49,74.11,64.22a198.66,198.66,0,0,0,74.45,21.06c7.13.57,14.38.12,21.43,1.15,8.67,1.27,17.2,3.56,25.78,5.48C1062.8,651.92,1064.66,652.61,1067,653.32ZM676.38,369.21c-1.52,1.19-2.36,1.72-3.07,2.4a133.22,133.22,0,0,0-28.12,39.75C630.88,441.88,620,473.06,629,507.65c1.2,4.62,3,7.83,7.23,10,17.81,9,35.42,18.46,53.41,27.12,37.86,18.2,69.76,43.56,93.42,78.38,15,22,28.28,45.11,42.83,67.41,18.84,28.86,43.75,45.88,80.32,44.64,68.93-2.35,137.92-2.87,206.88-4.48,8.55-.2,17.18-1.85,25.52-3.87,6.47-1.57,9-9.76,6.06-15.81-4.84-9.93-13.37-16-22.39-21.45-23.56-14.23-49.62-22.49-75.54-31-1.43-.47-3.91.48-5.16,1.6-7.25,6.5-16,9.31-25.3,10.94-14.45,2.53-28.84,1.92-43.3,0-28-3.67-53.95-13-75.36-31.57-11.32-9.83-20.67-22.08-30.16-33.83q-89.19-110.33-178-220.93C685.23,379.63,680.9,374.61,676.38,369.21ZM1179.85,728.1c-1.95-9.75-4-18.16-5.27-26.69-5-34,4.67-62.66,32.06-84.33,9.14-7.22,18.76-13.84,28.32-20.51,2.62-1.83,3.39-3.3,2.15-6.48-6.68-17.24-13-34.61-19.64-51.89-4.44-11.67-13.26-17.5-25.77-17.6-4.18,0-6.18,1.06-6.41,5.83a148.46,148.46,0,0,1-9.19,46.39c-9.67,25.29-25.82,43.4-54,47.73-3.09.47-3.54,2.3-4,4.71-2.78,13.37-5.46,26.78-8.59,40.07-.87,3.68-.19,5.16,3.23,6.75,14,6.48,27,14.45,37.25,26.29,7.21,8.35,8.88,17.61,4.44,27.84a29.64,29.64,0,0,0-.94,3.4Zm41.48-339.57c1.78-8.45,4.17-17.15,5.35-26a241.11,241.11,0,0,0,2.37-31.74c0-7.77-4.63-13.61-11.58-17.51-3.52-2-5.86-1.94-8.13,1.82-11.43,18.94-24,37.27-34.39,56.76-23.36,43.74-38.51,90.27-43.57,139.83-.46,4.51-.7,9-1.07,13.84,8.63-2.16,15.77-8.12,21.5-17.34,8.46-13.61,12.7-28.88,17.57-43.93,5.89-18.2,11.51-36.53,18.4-54.35,5.51-14.27,15.28-23.9,32.49-21C1220.42,388.89,1220.59,388.77,1221.33,388.53Zm-100.11,222.7c7.17-3,13.6-4.9,19.22-8.19,14.63-8.58,22.25-22.6,27.33-38.11,6.73-20.54,8.31-41.76,7.27-63.2-.23-4.73,1.49-7.54,6-8.21q12.81-1.92,25.71-3.22c3.71-.38,7.48-.06,11.61-.06-1.26-5.53-2.5-10-3.3-14.56-4.11-23.39-1-46.49,3-69.53,1.17-6.79-.27-8.45-7.09-6.75a14,14,0,0,0-6.69,4c-2.53,2.8-5,6-6.28,9.5-6.14,17.05-11.79,34.29-17.76,51.4-4.72,13.51-8.94,27.25-14.69,40.31-6.7,15.18-16.7,27.69-34,32.15-1.11.29-2.25,2.6-2.42,4.09-.92,7.94-1.41,15.93-2.3,23.87C1125.07,579.55,1123.23,594.39,1121.22,611.23Zm-22.57,54.26c.36-1.17.59-1.77.74-2.39a770.64,770.64,0,0,0,19.45-126.83c1.78-25.61,4.53-51.1,10.91-76.08,13.81-54.09,37.73-103.43,69.62-149.07,1-1.38,1.84-2.82,2.75-4.23l-1-1c-2.53,1.42-5.47,2.42-7.52,4.36a84.53,84.53,0,0,0-11.37,12.5c-23.47,33.67-40,70.74-51.84,109.85-6.23,20.67-12,41.75-15,63.07-4.73,33.45-7,67.25-10.29,100.9-1,10.15-1.75,10.61-11.78,8.81-.27,0-.6.22-1.4.54-4.89,16.59-9.88,33.49-15,50.92Zm-422.47,71.4v-6.4q0-67.25.05-134.49a19.25,19.25,0,0,1,1.17-7.26c4.38-10.37,11.29-18.37,22.22-22.32a39.91,39.91,0,0,0,4.07-2.21L642.38,534.1c1,3.65,1.39,5.61,2.11,7.43,14.81,37.57,20,76.85,20.53,116.9.34,24.16.11,48.32.14,72.49v6Zm346.93-78.81-.16-1c-9.55-1.26-19.16-2.19-28.65-3.82-49.3-8.46-90.48-31.73-123.11-69.47-27.1-31.35-53.33-63.45-80-95.14-7.52-8.92-15.38-17.57-23.08-26.35a4.23,4.23,0,0,0,1.14,3.31Q827.59,538.21,886,610.81c9,11.23,18.6,21.69,31.11,29.21,28.87,17.36,60.29,23.1,93.48,20.66C1014.77,660.37,1018.92,659,1023.11,658.08Zm232.38-86.3c-1.41.45-2.19.62-2.91.94-3.27,1.42-6.43,1.58-8.07-2.13-1.77-4,.84-6.07,4.2-7.65,6.21-2.9,6.39-3.79,2.57-10.62-4.27.17-9.91,5.92-12.58-.84-3.11-7.87,6.07-6.83,9.36-10.11-.93-7.72-1.17-7.9-7.88-5.85-.31.1-.62.24-.94.32-3.12.81-5.84.21-6.94-3.06s.33-5.5,3.41-6.79l6.14-2.53c-2.33-8-2.33-8-9.24-6.16-.48.13-1.09.53-1.42.36-2.16-1.06-5.53-1.85-6-3.49s1.4-4.62,3-6.23c1.38-1.38,3.85-1.66,5.77-2.39.39-4.18-2.13-4.71-5-4.64-12.31.29-24.63.44-36.93,1-6.78.32-7.23,1.39-5.17,8.29,1.58,0,3.22,0,4.86,0a36.22,36.22,0,0,1,35.61,24q6.87,18.51,13.79,37c2,5.23,4,10.41,6.23,16C1252.44,583.15,1255.68,578.87,1255.49,571.78Z" transform="translate(-580 -280)"/><path class="cls-1" d="M676.38,369.21c4.52,5.4,8.85,10.42,13,15.58q89,110.47,178,220.93c9.49,11.75,18.84,24,30.16,33.83,21.41,18.58,47.34,27.9,75.36,31.57,14.46,1.89,28.85,2.5,43.3,0,9.33-1.63,18-4.44,25.3-10.94,1.25-1.12,3.73-2.07,5.16-1.6,25.92,8.5,52,16.76,75.54,31,9,5.44,17.55,11.52,22.39,21.45,2.94,6,.41,14.24-6.06,15.81-8.34,2-17,3.67-25.52,3.87-69,1.61-137.95,2.13-206.88,4.48-36.57,1.24-61.48-15.78-80.32-44.64C811.29,668.21,798,645.1,783,623.1c-23.66-34.82-55.56-60.18-93.42-78.38-18-8.66-35.6-18.11-53.41-27.12-4.19-2.12-6-5.33-7.23-10-9-34.59,1.93-65.77,16.24-96.29a133.22,133.22,0,0,1,28.12-39.75C674,370.93,674.86,370.4,676.38,369.21ZM940,718.48c-5.11-2.94-10.07-2.81-15-1-.56.2-1,3.12-.41,3.7C927.83,724.36,936.6,723,940,718.48ZM702,527.43c-.43-1.23-.45-1.93-.77-2.12-3.9-2.36-7.81-4.72-11.84-6.86-.39-.21-2,.83-2.21,1.54-.27.89,0,2.56.62,3a77.66,77.66,0,0,0,10.27,5.92C699,529.3,700.65,528,702,527.43Zm392.27,191.74v.22c1.82-.08,3.72.14,5.42-.35,1.14-.33,2-1.66,3-2.55-.94-.92-1.83-2.57-2.82-2.63a68.91,68.91,0,0,0-11.31.23,3.49,3.49,0,0,0-2.14,2.66c0,.82,1.45,2.09,2.45,2.31A25.74,25.74,0,0,0,1094.26,719.17Zm-258-47.79c-.65,1.6-1.83,3.07-1.49,3.92a94.56,94.56,0,0,0,5.4,11c.33.58,2.48.87,3,.4.77-.67,1.47-2.45,1.1-3.25-1.59-3.45-3.53-6.75-5.45-10C838.48,672.8,837.64,672.44,836.28,671.38Zm-27.66-46.45c-.79,4.72,2.86,12.64,6.3,14.28a3.41,3.41,0,0,0,3-.35,3.31,3.31,0,0,0,.86-3C816.56,631.49,814,627.24,808.62,624.93ZM977.21,719c3.42,2.6,12.84,3.85,15.31,1.77.8-.66,1-3.58.26-4.27C990.36,714.13,979.63,716,977.21,719ZM640.93,498.35l-4,2.1c.89,1.23,1.53,3,2.73,3.57a43,43,0,0,0,8.92,2.72c1,.2,2.23-.84,3.36-1.31-.55-1.26-.76-3.2-1.71-3.66A83.93,83.93,0,0,0,640.93,498.35ZM674,516.93c1.16-.53,2.58-.74,3-1.49s0-2.66-.55-2.93a93.18,93.18,0,0,0-11.21-4.59c-.7-.23-2.29,1.08-2.83,2-.26.46.76,2.19,1.58,2.6C667.21,514.16,670.57,515.46,674,516.93ZM851.59,694.4l-2.24,1.23c.53,2,.47,4.63,1.73,6,2.3,2.58,5.38,4.46,8.13,6.63.51-1.39,1.85-3.45,1.37-4.06C857.82,700.77,854.63,697.65,851.59,694.4ZM726.31,541.88c-2.89-2.74-4.51-4.93-6.67-6.14-2.48-1.38-5.44-1.89-8.2-2.78-.1,1.12-.69,2.89-.21,3.26a96.9,96.9,0,0,0,10.24,6.94C722.21,543.59,723.77,542.6,726.31,541.88ZM1066,720.34a53.19,53.19,0,0,0,6.41-1.14c1-.3,1.79-1.47,2.67-2.25-.77-.73-1.51-2.06-2.32-2.1a80.94,80.94,0,0,0-11.23.11c-.91.08-1.7,1.63-2.55,2.51a16.2,16.2,0,0,0,3.14,2.54C1063.13,720.46,1064.43,720.24,1066,720.34Zm-53-6c-3,1.43-8.17,3.14-8,4,.8,4.92,5.27,3.27,8.34,2.91,2.62-.3,5.07-2,7.59-3.13Zm-246.53-138c.1-3.83-7.82-11.69-10.57-11.16-.73.14-1.86,2.61-1.57,2.94a88.7,88.7,0,0,0,8.59,8.75C763.59,577.37,765.45,576.49,766.52,576.3Zm65.05,86.4c.84-3.77-2.15-11.81-5.34-13.3-.94-.44-3.48.3-3.76,1.07C821.24,653.81,827.7,662.19,831.57,662.7ZM736.55,547l-1.92.64c-.41,1.22-1.5,3.19-1.12,3.54a104.7,104.7,0,0,0,9.84,7.84,15.47,15.47,0,0,0,2.46-2.46C742.81,553.24,739.68,550.1,736.55,547ZM884.79,718.61c-1.3-2.7-9.55-7.64-12.16-7a3.93,3.93,0,0,0-2.43,2.13,3.5,3.5,0,0,0,.73,3C873.59,719.5,881,720.42,884.79,718.61Zm245-.79v-2.65c-4.23-2.84-9-2.3-13.75-1.27-1,.21-1.77,1.48-2.65,2.26.86.89,1.73,2.56,2.58,2.54C1120.64,718.64,1125.24,718.16,1129.84,717.82Zm-91.18,3.38.35-.76a25.68,25.68,0,0,0,5.44-.5c1.33-.4,2.41-1.64,3.59-2.51-1.17-.95-2.22-2.35-3.56-2.72a10.7,10.7,0,0,0-5.87-.21c-2.37.78-4.43,2.47-6.62,3.77Zm-80.21,1.6,8.48-3.87c-1.86-4-5.61-3-8.62-2.69-2.64.29-5.13,1.91-7.69,3Zm-173-127.36.69-1.86c-3-3.16-5.86-6.4-9-9.41-.58-.57-2.76-.64-2.94-.29-.52,1-1,2.82-.42,3.48a78.6,78.6,0,0,0,8.11,8.51C782.52,596.39,784.27,595.62,785.47,595.44Zm17.62,20.72.68-1.79c-3.2-3.41-6.39-6.84-9.72-10.11a21.92,21.92,0,0,0-2.73,2.09c2.85,3.59,5.63,7.24,8.65,10.68C800.28,617.38,802,616.48,803.09,616.16ZM904,722.08c2.61,0,3.87.28,4.9-.08a16.87,16.87,0,0,0,3.45-2.17c-1.08-1-2.08-2.67-3.26-2.8a58.19,58.19,0,0,0-10.31,0c-.85,0-1.62,1.26-2.42,1.94.74.76,1.37,2,2.26,2.21A40.56,40.56,0,0,0,904,722.08Z" transform="translate(-580 -280)"/><path class="cls-1" d="M1179.85,728.1l-26.4,1.51a29.64,29.64,0,0,1,.94-3.4c4.44-10.23,2.77-19.49-4.44-27.84-10.24-11.84-23.27-19.81-37.25-26.29-3.42-1.59-4.1-3.07-3.23-6.75,3.13-13.29,5.81-26.7,8.59-40.07.5-2.41,1-4.24,4-4.71,28.18-4.33,44.33-22.44,54-47.73a148.46,148.46,0,0,0,9.19-46.39c.23-4.77,2.23-5.86,6.41-5.83,12.51.1,21.33,5.93,25.77,17.6,6.59,17.28,13,34.65,19.64,51.89,1.24,3.18.47,4.65-2.15,6.48-9.56,6.67-19.18,13.29-28.32,20.51-27.39,21.67-37.05,50.32-32.06,84.33C1175.83,709.94,1177.9,718.35,1179.85,728.1Z" transform="translate(-580 -280)"/><path class="cls-1" d="M1221.33,388.53c-.74.24-.91.36-1.06.34-17.21-2.86-27,6.77-32.49,21-6.89,17.82-12.51,36.15-18.4,54.35-4.87,15.05-9.11,30.32-17.57,43.93-5.73,9.22-12.87,15.18-21.5,17.34.37-4.81.61-9.33,1.07-13.84,5.06-49.56,20.21-96.09,43.57-139.83,10.41-19.49,23-37.82,34.39-56.76,2.27-3.76,4.61-3.79,8.13-1.82,7,3.9,11.57,9.74,11.58,17.51a241.11,241.11,0,0,1-2.37,31.74C1225.5,371.38,1223.11,380.08,1221.33,388.53Z" transform="translate(-580 -280)"/><path class="cls-1" d="M1121.22,611.23c2-16.84,3.85-31.68,5.52-46.55.89-7.94,1.38-15.93,2.3-23.87.17-1.49,1.31-3.8,2.42-4.09,17.31-4.46,27.31-17,34-32.15,5.75-13.06,10-26.8,14.69-40.31,6-17.11,11.62-34.35,17.76-51.4,1.25-3.49,3.75-6.7,6.28-9.5a14,14,0,0,1,6.69-4c6.82-1.7,8.26,0,7.09,6.75-4,23-7.07,46.14-3,69.53.8,4.55,2,9,3.3,14.56-4.13,0-7.9-.32-11.61.06q-12.89,1.32-25.71,3.22c-4.47.67-6.19,3.48-6,8.21,1,21.44-.54,42.66-7.27,63.2-5.08,15.51-12.7,29.53-27.33,38.11C1134.82,606.33,1128.39,608.23,1121.22,611.23Z" transform="translate(-580 -280)"/><path class="cls-1" d="M1098.65,665.49l-21.72-8.66c5.14-17.43,10.13-34.33,15-50.92.8-.32,1.13-.59,1.4-.54,10,1.8,10.77,1.34,11.78-8.81,3.34-33.65,5.56-67.45,10.29-100.9,3-21.32,8.76-42.4,15-63.07,11.8-39.11,28.37-76.18,51.84-109.85a84.53,84.53,0,0,1,11.37-12.5c2.05-1.94,5-2.94,7.52-4.36l1,1c-.91,1.41-1.79,2.85-2.75,4.23-31.89,45.64-55.81,95-69.62,149.07-6.38,25-9.13,50.47-10.91,76.08a770.64,770.64,0,0,1-19.45,126.83C1099.24,663.72,1099,664.32,1098.65,665.49Z" transform="translate(-580 -280)"/><path class="cls-1" d="M676.18,736.89h-11v-6c0-24.17.2-48.33-.14-72.49-.55-40-5.72-79.33-20.53-116.9-.72-1.82-1.09-3.78-2.11-7.43l61.31,30.11a39.91,39.91,0,0,1-4.07,2.21c-10.93,4-17.84,12-22.22,22.32a19.25,19.25,0,0,0-1.17,7.26q-.09,67.25-.05,134.49Z" transform="translate(-580 -280)"/><path class="cls-1" d="M1023.11,658.08c-4.19.89-8.34,2.29-12.57,2.6-33.19,2.44-64.61-3.3-93.48-20.66C904.55,632.5,895,622,886,610.81q-58.26-72.66-116.74-145.15a4.23,4.23,0,0,1-1.14-3.31c7.7,8.78,15.56,17.43,23.08,26.35,26.71,31.69,52.94,63.79,80,95.14,32.63,37.74,73.81,61,123.11,69.47,9.49,1.63,19.1,2.56,28.65,3.82Z" transform="translate(-580 -280)"/><path class="cls-1" d="M1255.49,571.78c.19,7.09-3,11.37-8.17,15.47-2.19-5.62-4.27-10.8-6.23-16q-6.94-18.48-13.79-37a36.22,36.22,0,0,0-35.61-24c-1.64.05-3.28,0-4.86,0-2.06-6.9-1.61-8,5.17-8.29,12.3-.58,24.62-.73,36.93-1,2.89-.07,5.41.46,5,4.64-1.92.73-4.39,1-5.77,2.39-1.63,1.61-3.54,4.57-3,6.23s3.88,2.43,6,3.49c.33.17.94-.23,1.42-.36,6.91-1.88,6.91-1.88,9.24,6.16l-6.14,2.53c-3.08,1.29-4.47,3.65-3.41,6.79s3.82,3.87,6.94,3.06c.32-.08.63-.22.94-.32,6.71-2,7-1.87,7.88,5.85-3.29,3.28-12.47,2.24-9.36,10.11,2.67,6.76,8.31,1,12.58.84,3.82,6.83,3.64,7.72-2.57,10.62-3.36,1.58-6,3.64-4.2,7.65,1.64,3.71,4.8,3.55,8.07,2.13C1253.3,572.4,1254.08,572.23,1255.49,571.78Z" transform="translate(-580 -280)"/><path d="M940,718.48c-3.41,4.52-12.18,5.88-15.41,2.67-.58-.58-.15-3.5.41-3.7C929.94,715.67,934.9,715.54,940,718.48Z" transform="translate(-580 -280)"/><path d="M702,527.43c-1.34.54-3,1.87-3.93,1.46A77.66,77.66,0,0,1,687.79,523c-.64-.42-.89-2.09-.62-3,.2-.71,1.82-1.75,2.21-1.54,4,2.14,7.94,4.5,11.84,6.86C701.54,525.5,701.56,526.2,702,527.43Z" transform="translate(-580 -280)"/><path d="M1094.26,719.17a25.74,25.74,0,0,1-5.42-.11c-1-.22-2.44-1.49-2.45-2.31a3.49,3.49,0,0,1,2.14-2.66,68.91,68.91,0,0,1,11.31-.23c1,.06,1.88,1.71,2.82,2.63-1,.89-1.84,2.22-3,2.55-1.7.49-3.6.27-5.42.35Z" transform="translate(-580 -280)"/><path d="M836.28,671.38c1.36,1.06,2.2,1.42,2.58,2.06,1.92,3.29,3.86,6.59,5.45,10,.37.8-.33,2.58-1.1,3.25-.54.47-2.69.18-3-.4a94.56,94.56,0,0,1-5.4-11C834.45,674.45,835.63,673,836.28,671.38Z" transform="translate(-580 -280)"/><path d="M808.62,624.93c5.42,2.31,7.94,6.56,10.18,11a3.31,3.31,0,0,1-.86,3,3.41,3.41,0,0,1-3,.35C811.48,637.57,807.83,629.65,808.62,624.93Z" transform="translate(-580 -280)"/><path d="M977.21,719c2.42-3,13.15-4.85,15.57-2.5.71.69.54,3.61-.26,4.27C990.05,722.83,980.63,721.58,977.21,719Z" transform="translate(-580 -280)"/><path d="M640.93,498.35a83.93,83.93,0,0,1,9.31,3.42c1,.46,1.16,2.4,1.71,3.66-1.13.47-2.37,1.51-3.36,1.31a43,43,0,0,1-8.92-2.72c-1.2-.54-1.84-2.34-2.73-3.57Z" transform="translate(-580 -280)"/><path d="M674,516.93c-3.45-1.47-6.81-2.77-10-4.37-.82-.41-1.84-2.14-1.58-2.6.54-1,2.13-2.27,2.83-2a93.18,93.18,0,0,1,11.21,4.59c.58.27.94,2.21.55,2.93S675.18,516.4,674,516.93Z" transform="translate(-580 -280)"/><path d="M851.59,694.4c3,3.25,6.23,6.37,9,9.84.48.61-.86,2.67-1.37,4.06-2.75-2.17-5.83-4-8.13-6.63-1.26-1.41-1.2-4-1.73-6Z" transform="translate(-580 -280)"/><path d="M726.31,541.88c-2.54.72-4.1,1.71-4.84,1.28a96.9,96.9,0,0,1-10.24-6.94c-.48-.37.11-2.14.21-3.26,2.76.89,5.72,1.4,8.2,2.78C721.8,537,723.42,539.14,726.31,541.88Z" transform="translate(-580 -280)"/><path d="M1066,720.34c-1.6-.1-2.9.12-3.88-.33a16.2,16.2,0,0,1-3.14-2.54c.85-.88,1.64-2.43,2.55-2.51a80.94,80.94,0,0,1,11.23-.11c.81,0,1.55,1.37,2.32,2.1-.88.78-1.65,1.95-2.67,2.25A53.19,53.19,0,0,1,1066,720.34Z" transform="translate(-580 -280)"/><path d="M1013.05,714.3l7.9,3.76c-2.52,1.1-5,2.83-7.59,3.13-3.07.36-7.54,2-8.34-2.91C1004.88,717.44,1010.07,715.73,1013.05,714.3Z" transform="translate(-580 -280)"/><path d="M766.52,576.3c-1.07.19-2.93,1.07-3.55.53a88.7,88.7,0,0,1-8.59-8.75c-.29-.33.84-2.8,1.57-2.94C758.7,564.61,766.62,572.47,766.52,576.3Z" transform="translate(-580 -280)"/><path d="M831.57,662.7c-3.87-.51-10.33-8.89-9.1-12.23.28-.77,2.82-1.51,3.76-1.07C829.42,650.89,832.41,658.93,831.57,662.7Z" transform="translate(-580 -280)"/><path d="M736.55,547c3.13,3.15,6.26,6.29,9.26,9.56a15.47,15.47,0,0,1-2.46,2.46,104.7,104.7,0,0,1-9.84-7.84c-.38-.35.71-2.32,1.12-3.54Z" transform="translate(-580 -280)"/><path d="M884.79,718.61c-3.75,1.81-11.2.89-13.86-1.92a3.5,3.5,0,0,1-.73-3,3.93,3.93,0,0,1,2.43-2.13C875.24,711,883.49,715.91,884.79,718.61Z" transform="translate(-580 -280)"/><path d="M1129.84,717.82c-4.6.34-9.2.82-13.81.88-.85,0-1.72-1.65-2.58-2.54.88-.78,1.65-2,2.65-2.26,4.75-1,9.52-1.57,13.75,1.27Z" transform="translate(-580 -280)"/><path d="M1038.66,721.2l-6.67-2.93c2.19-1.3,4.25-3,6.62-3.77a10.7,10.7,0,0,1,5.87.21c1.34.37,2.39,1.77,3.56,2.72-1.18.87-2.26,2.11-3.59,2.51a25.68,25.68,0,0,1-5.44.5Z" transform="translate(-580 -280)"/><path d="M958.45,722.8l-7.83-3.61c2.56-1,5-2.66,7.69-3,3-.33,6.76-1.34,8.62,2.69Z" transform="translate(-580 -280)"/><path d="M785.47,595.44c-1.2.18-3,.95-3.53.43a78.6,78.6,0,0,1-8.11-8.51c-.54-.66-.1-2.47.42-3.48.18-.35,2.36-.28,2.94.29,3.11,3,6,6.25,9,9.41Z" transform="translate(-580 -280)"/><path d="M803.09,616.16c-1.08.32-2.81,1.22-3.12.87-3-3.44-5.8-7.09-8.65-10.68a21.92,21.92,0,0,1,2.73-2.09c3.33,3.27,6.52,6.7,9.72,10.11Z" transform="translate(-580 -280)"/><path d="M904,722.08a40.56,40.56,0,0,1-5.38-1c-.89-.25-1.52-1.45-2.26-2.21.8-.68,1.57-1.89,2.42-1.94a58.19,58.19,0,0,1,10.31,0c1.18.13,2.18,1.82,3.26,2.8a16.87,16.87,0,0,1-3.45,2.17C907.9,722.36,906.64,722.08,904,722.08Z" transform="translate(-580 -280)"/></svg>